<mxfile host="app.diagrams.net" modified="2023-07-24T09:41:51.962Z" agent="Mozilla/5.0 (Windows NT 10.0; Win64; x64; rv:109.0) Gecko/20100101 Firefox/115.0" etag="AqDJmf2B4aJ1itsCtr4Q" version="21.5.2" type="device">
  <diagram name="Seite-1" id="dA-f3gZ3LizXZUL1VeH9">
    <mxGraphModel dx="683" dy="372" grid="1" gridSize="10" guides="1" tooltips="1" connect="1" arrows="1" fold="1" page="1" pageScale="1" pageWidth="827" pageHeight="1169" math="0" shadow="0">
      <root>
        <mxCell id="0" />
        <mxCell id="1" parent="0" />
        <mxCell id="jJch6up4BkfaRnu90iqF-2" value="" style="shape=crossbar;whiteSpace=wrap;html=1;rounded=1;fontSize=12;" parent="1" vertex="1">
          <mxGeometry x="440" y="420" width="120" height="20" as="geometry" />
        </mxCell>
        <mxCell id="jJch6up4BkfaRnu90iqF-3" value="" style="shape=crossbar;whiteSpace=wrap;html=1;rounded=1;fontSize=12;" parent="1" vertex="1">
          <mxGeometry x="560" y="420" width="80" height="20" as="geometry" />
        </mxCell>
        <mxCell id="jJch6up4BkfaRnu90iqF-4" value="" style="shape=crossbar;whiteSpace=wrap;html=1;rounded=1;fontSize=12;" parent="1" vertex="1">
          <mxGeometry x="240" y="420" width="100" height="20" as="geometry" />
        </mxCell>
        <mxCell id="jJch6up4BkfaRnu90iqF-6" value="" style="shape=crossbar;whiteSpace=wrap;html=1;rounded=1;fontSize=12;" parent="1" vertex="1">
          <mxGeometry x="400" y="420" width="40" height="20" as="geometry" />
        </mxCell>
        <mxCell id="jJch6up4BkfaRnu90iqF-7" value="" style="shape=crossbar;whiteSpace=wrap;html=1;rounded=1;strokeColor=#FF0000;strokeWidth=2;fontSize=12;" parent="1" vertex="1">
          <mxGeometry x="340" y="420" width="30" height="20" as="geometry" />
        </mxCell>
        <mxCell id="jJch6up4BkfaRnu90iqF-8" value="" style="shape=crossbar;whiteSpace=wrap;html=1;rounded=1;strokeColor=#007FFF;fontSize=12;" parent="1" vertex="1">
          <mxGeometry x="370" y="420" width="20" height="20" as="geometry" />
        </mxCell>
        <mxCell id="jJch6up4BkfaRnu90iqF-10" value="" style="shape=crossbar;whiteSpace=wrap;html=1;rounded=1;strokeColor=#009900;fontSize=12;" parent="1" vertex="1">
          <mxGeometry x="390" y="420" width="10" height="20" as="geometry" />
        </mxCell>
        <mxCell id="jJch6up4BkfaRnu90iqF-18" value="" style="shape=crossbar;whiteSpace=wrap;html=1;rounded=1;strokeColor=#ff0000;strokeWidth=2;fontSize=12;" parent="1" vertex="1">
          <mxGeometry x="240" y="320" width="200" height="20" as="geometry" />
        </mxCell>
        <mxCell id="jJch6up4BkfaRnu90iqF-19" value="" style="shape=crossbar;whiteSpace=wrap;html=1;rounded=1;strokeColor=#007FFF;fontSize=12;" parent="1" vertex="1">
          <mxGeometry x="440" y="320" width="120" height="20" as="geometry" />
        </mxCell>
        <mxCell id="jJch6up4BkfaRnu90iqF-20" value="" style="shape=crossbar;whiteSpace=wrap;html=1;rounded=1;strokeColor=#009900;fontSize=12;" parent="1" vertex="1">
          <mxGeometry x="560" y="320" width="80" height="20" as="geometry" />
        </mxCell>
        <mxCell id="jJch6up4BkfaRnu90iqF-21" value="" style="shape=crossbar;whiteSpace=wrap;html=1;rounded=1;strokeColor=#FF0000;fontSize=12;" parent="1" vertex="1">
          <mxGeometry x="240" y="370" width="100" height="20" as="geometry" />
        </mxCell>
        <mxCell id="jJch6up4BkfaRnu90iqF-22" value="" style="shape=crossbar;whiteSpace=wrap;html=1;rounded=1;strokeColor=#000000;fontSize=12;" parent="1" vertex="1">
          <mxGeometry x="440" y="370" width="120" height="20" as="geometry" />
        </mxCell>
        <mxCell id="jJch6up4BkfaRnu90iqF-23" value="" style="shape=crossbar;whiteSpace=wrap;html=1;rounded=1;strokeColor=#000000;fontSize=12;" parent="1" vertex="1">
          <mxGeometry x="560" y="370" width="80" height="20" as="geometry" />
        </mxCell>
        <mxCell id="jJch6up4BkfaRnu90iqF-24" value="" style="shape=crossbar;whiteSpace=wrap;html=1;rounded=1;strokeColor=#007FFF;strokeWidth=2;fontSize=12;" parent="1" vertex="1">
          <mxGeometry x="340" y="370" width="60" height="20" as="geometry" />
        </mxCell>
        <mxCell id="jJch6up4BkfaRnu90iqF-25" value="" style="shape=crossbar;whiteSpace=wrap;html=1;rounded=1;strokeColor=#009900;fontSize=12;" parent="1" vertex="1">
          <mxGeometry x="400" y="370" width="40" height="20" as="geometry" />
        </mxCell>
        <mxCell id="jJch6up4BkfaRnu90iqF-33" value="" style="shape=crossbar;whiteSpace=wrap;html=1;rounded=1;fontSize=12;" parent="1" vertex="1">
          <mxGeometry x="440" y="470" width="120" height="20" as="geometry" />
        </mxCell>
        <mxCell id="jJch6up4BkfaRnu90iqF-34" value="" style="shape=crossbar;whiteSpace=wrap;html=1;rounded=1;fontSize=12;" parent="1" vertex="1">
          <mxGeometry x="560" y="470" width="80" height="20" as="geometry" />
        </mxCell>
        <mxCell id="jJch6up4BkfaRnu90iqF-35" value="" style="shape=crossbar;whiteSpace=wrap;html=1;rounded=1;fontSize=12;" parent="1" vertex="1">
          <mxGeometry x="240" y="470" width="100" height="20" as="geometry" />
        </mxCell>
        <mxCell id="jJch6up4BkfaRnu90iqF-36" value="" style="shape=crossbar;whiteSpace=wrap;html=1;rounded=1;fontSize=12;" parent="1" vertex="1">
          <mxGeometry x="400" y="470" width="40" height="20" as="geometry" />
        </mxCell>
        <mxCell id="jJch6up4BkfaRnu90iqF-37" value="" style="shape=crossbar;whiteSpace=wrap;html=1;rounded=1;strokeColor=#FF0000;fontSize=12;" parent="1" vertex="1">
          <mxGeometry x="340" y="470" width="15" height="20" as="geometry" />
        </mxCell>
        <mxCell id="jJch6up4BkfaRnu90iqF-38" value="" style="shape=crossbar;whiteSpace=wrap;html=1;rounded=1;fontSize=12;" parent="1" vertex="1">
          <mxGeometry x="370" y="470" width="20" height="20" as="geometry" />
        </mxCell>
        <mxCell id="jJch6up4BkfaRnu90iqF-39" value="" style="shape=crossbar;whiteSpace=wrap;html=1;rounded=1;fontSize=12;" parent="1" vertex="1">
          <mxGeometry x="390" y="470" width="10" height="20" as="geometry" />
        </mxCell>
        <mxCell id="jJch6up4BkfaRnu90iqF-40" value="" style="shape=crossbar;whiteSpace=wrap;html=1;rounded=1;strokeColor=#007FFF;fontSize=12;" parent="1" vertex="1">
          <mxGeometry x="355" y="470" width="9" height="20" as="geometry" />
        </mxCell>
        <mxCell id="jJch6up4BkfaRnu90iqF-41" value="" style="shape=crossbar;whiteSpace=wrap;html=1;rounded=1;strokeColor=#009900;strokeWidth=2;fontSize=12;" parent="1" vertex="1">
          <mxGeometry x="364" y="470" width="6" height="20" as="geometry" />
        </mxCell>
        <mxCell id="jJch6up4BkfaRnu90iqF-43" value="&lt;b style=&quot;font-size: 12px;&quot;&gt;A&lt;/b&gt;" style="text;html=1;strokeColor=none;fillColor=none;align=center;verticalAlign=middle;whiteSpace=wrap;rounded=0;fontSize=12;" parent="1" vertex="1">
          <mxGeometry x="317.5" y="300" width="60" height="30" as="geometry" />
        </mxCell>
        <mxCell id="jJch6up4BkfaRnu90iqF-47" value="&lt;b style=&quot;font-size: 12px;&quot;&gt;B&lt;/b&gt;" style="text;html=1;strokeColor=none;fillColor=none;align=center;verticalAlign=middle;whiteSpace=wrap;rounded=0;fontSize=12;" parent="1" vertex="1">
          <mxGeometry x="340" y="350" width="60" height="30" as="geometry" />
        </mxCell>
        <mxCell id="jJch6up4BkfaRnu90iqF-49" value="&lt;b style=&quot;font-size: 12px;&quot;&gt;A&lt;/b&gt;" style="text;html=1;strokeColor=none;fillColor=none;align=center;verticalAlign=middle;whiteSpace=wrap;rounded=0;fontSize=12;" parent="1" vertex="1">
          <mxGeometry x="325" y="400" width="60" height="30" as="geometry" />
        </mxCell>
        <mxCell id="jJch6up4BkfaRnu90iqF-54" value="&lt;b style=&quot;font-size: 12px;&quot;&gt;C&lt;/b&gt;" style="text;html=1;strokeColor=none;fillColor=none;align=center;verticalAlign=middle;whiteSpace=wrap;rounded=0;fontSize=12;" parent="1" vertex="1">
          <mxGeometry x="337" y="440" width="60" height="40" as="geometry" />
        </mxCell>
        <mxCell id="jJch6up4BkfaRnu90iqF-55" value="0" style="text;html=1;strokeColor=none;fillColor=none;align=center;verticalAlign=middle;whiteSpace=wrap;rounded=0;fontSize=12;" parent="1" vertex="1">
          <mxGeometry x="230" y="300" width="20" height="20" as="geometry" />
        </mxCell>
        <mxCell id="jJch6up4BkfaRnu90iqF-56" value="&lt;div style=&quot;font-size: 12px;&quot;&gt;0.5&lt;/div&gt;" style="text;html=1;strokeColor=none;fillColor=none;align=center;verticalAlign=middle;whiteSpace=wrap;rounded=0;fontSize=12;" parent="1" vertex="1">
          <mxGeometry x="430" y="300" width="20" height="20" as="geometry" />
        </mxCell>
        <mxCell id="jJch6up4BkfaRnu90iqF-58" value="&lt;div style=&quot;font-size: 12px;&quot;&gt;0.8&lt;/div&gt;" style="text;html=1;strokeColor=none;fillColor=none;align=center;verticalAlign=middle;whiteSpace=wrap;rounded=0;fontSize=12;" parent="1" vertex="1">
          <mxGeometry x="550" y="300" width="20" height="20" as="geometry" />
        </mxCell>
        <mxCell id="jJch6up4BkfaRnu90iqF-59" value="1" style="text;html=1;strokeColor=none;fillColor=none;align=center;verticalAlign=middle;whiteSpace=wrap;rounded=0;fontSize=12;" parent="1" vertex="1">
          <mxGeometry x="630" y="300" width="20" height="20" as="geometry" />
        </mxCell>
        <mxCell id="jJch6up4BkfaRnu90iqF-60" value="0" style="text;html=1;strokeColor=none;fillColor=none;align=center;verticalAlign=middle;whiteSpace=wrap;rounded=0;fontSize=12;" parent="1" vertex="1">
          <mxGeometry x="230" y="350" width="20" height="20" as="geometry" />
        </mxCell>
        <mxCell id="jJch6up4BkfaRnu90iqF-61" value="&lt;div style=&quot;font-size: 12px;&quot;&gt;0.5&lt;/div&gt;" style="text;html=1;strokeColor=none;fillColor=none;align=center;verticalAlign=middle;whiteSpace=wrap;rounded=0;fontSize=12;" parent="1" vertex="1">
          <mxGeometry x="430" y="350" width="20" height="20" as="geometry" />
        </mxCell>
        <mxCell id="jJch6up4BkfaRnu90iqF-64" value="&lt;div style=&quot;font-size: 12px;&quot;&gt;0.25&lt;/div&gt;" style="text;html=1;strokeColor=none;fillColor=none;align=center;verticalAlign=middle;whiteSpace=wrap;rounded=0;fontSize=12;" parent="1" vertex="1">
          <mxGeometry x="330" y="350" width="20" height="20" as="geometry" />
        </mxCell>
        <mxCell id="jJch6up4BkfaRnu90iqF-65" value="0.4" style="text;html=1;strokeColor=none;fillColor=none;align=center;verticalAlign=middle;whiteSpace=wrap;rounded=0;fontSize=12;" parent="1" vertex="1">
          <mxGeometry x="390" y="350" width="20" height="20" as="geometry" />
        </mxCell>
        <mxCell id="jJch6up4BkfaRnu90iqF-73" value="&lt;b style=&quot;font-size: 12px;&quot;&gt;A&lt;/b&gt;" style="text;html=1;strokeColor=none;fillColor=none;align=center;verticalAlign=middle;whiteSpace=wrap;rounded=0;fontSize=12;" parent="1" vertex="1">
          <mxGeometry x="650" y="370" width="20" height="30" as="geometry" />
        </mxCell>
        <mxCell id="jJch6up4BkfaRnu90iqF-74" value="&lt;b style=&quot;font-size: 12px;&quot;&gt;B&lt;/b&gt;" style="text;html=1;strokeColor=none;fillColor=none;align=center;verticalAlign=middle;whiteSpace=wrap;rounded=0;fontSize=12;" parent="1" vertex="1">
          <mxGeometry x="650" y="390" width="20" height="30" as="geometry" />
        </mxCell>
        <mxCell id="jJch6up4BkfaRnu90iqF-75" value="&lt;b style=&quot;font-size: 12px;&quot;&gt;C&lt;/b&gt;" style="text;html=1;strokeColor=none;fillColor=none;align=center;verticalAlign=middle;whiteSpace=wrap;rounded=0;fontSize=12;" parent="1" vertex="1">
          <mxGeometry x="650" y="410" width="20" height="30" as="geometry" />
        </mxCell>
        <mxCell id="jJch6up4BkfaRnu90iqF-76" value="" style="rounded=0;whiteSpace=wrap;html=1;strokeColor=#000000;fillColor=#FF0000;fontSize=12;" parent="1" vertex="1">
          <mxGeometry x="670" y="377.5" width="15" height="15" as="geometry" />
        </mxCell>
        <mxCell id="jJch6up4BkfaRnu90iqF-77" value="" style="rounded=0;whiteSpace=wrap;html=1;strokeColor=#000000;fillColor=#007FFF;fontSize=12;" parent="1" vertex="1">
          <mxGeometry x="670" y="397.5" width="15" height="15" as="geometry" />
        </mxCell>
        <mxCell id="jJch6up4BkfaRnu90iqF-79" value="" style="rounded=0;whiteSpace=wrap;html=1;strokeColor=#000000;fillColor=#009900;fontSize=12;" parent="1" vertex="1">
          <mxGeometry x="670" y="417.5" width="15" height="15" as="geometry" />
        </mxCell>
      </root>
    </mxGraphModel>
  </diagram>
</mxfile>
